<svg xmlns="http://www.w3.org/2000/svg" xmlns:xlink="http://www.w3.org/1999/xlink" width="500" zoomAndPan="magnify" viewBox="0 0 375 374.999991" height="500" preserveAspectRatio="xMidYMid meet" version="1.0"><defs><g/></defs><g fill="#252525" fill-opacity="1"><g transform="translate(133.042965, 195.374987)"><g><path d="M 7.84375 -98.84375 C 9.238281 -98.375 11.078125 -97.878906 13.359375 -97.359375 C 15.648438 -96.847656 17.726562 -96.59375 19.59375 -96.59375 L 90.15625 -96.59375 C 92.019531 -96.59375 94.070312 -96.847656 96.3125 -97.359375 C 98.5625 -97.878906 100.429688 -98.375 101.921875 -98.84375 L 107.09375 -72.65625 L 105.140625 -71.6875 C 102.992188 -75.226562 101.148438 -78.257812 99.609375 -80.78125 C 98.066406 -83.300781 96.644531 -85.351562 95.34375 -86.9375 C 94.125 -88.4375 93.09375 -89.628906 92.25 -90.515625 C 91.414062 -91.398438 90.601562 -92.070312 89.8125 -92.53125 C 89.019531 -93 88.203125 -93.300781 87.359375 -93.4375 C 86.515625 -93.582031 85.488281 -93.65625 84.28125 -93.65625 L 62.015625 -93.65625 L 62.015625 -10.359375 C 62.015625 -8.773438 62.296875 -7.515625 62.859375 -6.578125 C 63.421875 -5.648438 64.257812 -4.925781 65.375 -4.40625 C 66.5 -3.894531 67.875 -3.546875 69.5 -3.359375 C 71.132812 -3.171875 72.984375 -3.03125 75.046875 -2.9375 L 75.046875 0 L 35.140625 0 L 35.140625 -2.9375 C 37.003906 -3.03125 38.707031 -3.171875 40.25 -3.359375 C 41.789062 -3.546875 43.117188 -3.875 44.234375 -4.34375 C 45.359375 -4.8125 46.242188 -5.507812 46.890625 -6.4375 C 47.546875 -7.375 47.875 -8.679688 47.875 -10.359375 L 47.875 -93.65625 L 25.203125 -93.65625 C 23.796875 -93.65625 22.648438 -93.535156 21.765625 -93.296875 C 20.878906 -93.066406 20.109375 -92.742188 19.453125 -92.328125 C 18.804688 -91.910156 18.222656 -91.394531 17.703125 -90.78125 C 17.191406 -90.175781 16.609375 -89.503906 15.953125 -88.765625 C 15.117188 -87.828125 14.210938 -86.679688 13.234375 -85.328125 C 12.253906 -83.972656 11.15625 -82.410156 9.9375 -80.640625 C 9.101562 -79.335938 8.21875 -77.960938 7.28125 -76.515625 C 6.34375 -75.066406 5.175781 -73.5 3.78125 -71.8125 L 1.953125 -72.796875 Z M 7.84375 -98.84375 "/></g></g></g><g fill="#000000" fill-opacity="1"><g transform="translate(136.957027, 225.374985)"><g><path d="M 5.046875 -47.3125 C 5.046875 -54.6875 6.300781 -61.453125 8.8125 -67.609375 C 11.332031 -73.773438 14.832031 -79.097656 19.3125 -83.578125 C 23.800781 -88.054688 29.125 -91.554688 35.28125 -94.078125 C 41.4375 -96.597656 48.15625 -97.859375 55.4375 -97.859375 C 60.945312 -97.859375 66.035156 -96.972656 70.703125 -95.203125 C 75.367188 -93.429688 80.222656 -90.910156 85.265625 -87.640625 L 89.734375 -93.65625 L 91.984375 -93.65625 L 91.984375 -61.046875 L 89.453125 -61.046875 C 88.898438 -65.617188 87.710938 -69.957031 85.890625 -74.0625 C 84.066406 -78.164062 81.707031 -81.753906 78.8125 -84.828125 C 75.925781 -87.910156 72.519531 -90.363281 68.59375 -92.1875 C 64.675781 -94.007812 60.289062 -94.921875 55.4375 -94.921875 C 53.851562 -94.921875 51.988281 -94.707031 49.84375 -94.28125 C 47.695312 -93.863281 45.429688 -93.070312 43.046875 -91.90625 C 40.671875 -90.738281 38.269531 -89.148438 35.84375 -87.140625 C 33.414062 -85.140625 31.082031 -82.550781 28.84375 -79.375 C 26.414062 -75.832031 24.453125 -71.351562 22.953125 -65.9375 C 21.460938 -60.519531 20.71875 -54.035156 20.71875 -46.484375 C 20.71875 -38.265625 21.976562 -31.171875 24.5 -25.203125 C 25.625 -22.585938 26.835938 -20.132812 28.140625 -17.84375 C 29.441406 -15.5625 30.890625 -13.488281 32.484375 -11.625 C 35.460938 -8.164062 38.84375 -5.523438 42.625 -3.703125 C 46.40625 -1.890625 50.394531 -0.984375 54.59375 -0.984375 C 59.351562 -0.984375 63.71875 -1.796875 67.6875 -3.421875 C 71.65625 -5.054688 75.109375 -7.320312 78.046875 -10.21875 C 80.984375 -13.113281 83.457031 -16.5 85.46875 -20.375 C 87.476562 -24.25 88.898438 -28.425781 89.734375 -32.90625 L 92.40625 -32.90625 L 92.40625 -1.6875 L 89.453125 -1.6875 L 85.546875 -8.265625 C 80.222656 -4.710938 74.96875 -2.117188 69.78125 -0.484375 C 64.601562 1.140625 59.40625 1.953125 54.1875 1.953125 C 46.625 1.953125 39.832031 0.8125 33.8125 -1.46875 C 27.789062 -3.757812 22.632812 -7.023438 18.34375 -11.265625 C 14.050781 -15.515625 10.757812 -20.671875 8.46875 -26.734375 C 6.1875 -32.804688 5.046875 -39.664062 5.046875 -47.3125 Z M 5.046875 -47.3125 "/></g></g></g><g fill="#000000" fill-opacity="1"><g transform="translate(117.82296, 281.024982)"><g><path d="M 3.515625 -8.953125 L 0.3125 -8.953125 L 0.3125 -11.203125 L 9.125 -11.203125 L 9.125 -8.953125 L 5.921875 -8.953125 L 5.921875 0 L 3.515625 0 Z M 3.515625 -8.953125 "/></g></g></g><g fill="#000000" fill-opacity="1"><g transform="translate(129.820692, 281.024982)"><g><path d="M 1.4375 -11.203125 L 6.40625 -11.203125 C 7 -11.203125 7.535156 -11.109375 8.015625 -10.921875 C 8.503906 -10.742188 8.921875 -10.488281 9.265625 -10.15625 C 9.609375 -9.820312 9.867188 -9.421875 10.046875 -8.953125 C 10.222656 -8.492188 10.3125 -7.988281 10.3125 -7.4375 C 10.3125 -6.800781 10.210938 -6.269531 10.015625 -5.84375 C 9.828125 -5.414062 9.609375 -5.078125 9.359375 -4.828125 C 9.078125 -4.546875 8.757812 -4.320312 8.40625 -4.15625 L 10.71875 0 L 8.078125 0 L 6.078125 -3.6875 L 3.84375 -3.6875 L 3.84375 0 L 1.4375 0 Z M 6.3125 -5.921875 C 6.757812 -5.921875 7.125 -6.0625 7.40625 -6.34375 C 7.695312 -6.625 7.84375 -6.988281 7.84375 -7.4375 C 7.84375 -7.882812 7.695312 -8.25 7.40625 -8.53125 C 7.125 -8.8125 6.757812 -8.953125 6.3125 -8.953125 L 3.84375 -8.953125 L 3.84375 -5.921875 Z M 6.3125 -5.921875 "/></g></g></g><g fill="#000000" fill-opacity="1"><g transform="translate(143.657981, 281.024982)"><g><path d="M 1.4375 -11.203125 L 3.84375 -11.203125 L 3.84375 0 L 1.4375 0 Z M 1.4375 -11.203125 "/></g></g></g><g fill="#000000" fill-opacity="1"><g transform="translate(151.496711, 281.024982)"><g><path d="M 6.234375 0.234375 C 5.515625 0.234375 4.851562 0.113281 4.25 -0.125 C 3.65625 -0.363281 3.144531 -0.695312 2.71875 -1.125 C 2.289062 -1.550781 1.957031 -2.0625 1.71875 -2.65625 C 1.476562 -3.25 1.359375 -3.910156 1.359375 -4.640625 L 1.359375 -11.203125 L 3.765625 -11.203125 L 3.765625 -4.640625 C 3.765625 -4.234375 3.820312 -3.867188 3.9375 -3.546875 C 4.0625 -3.234375 4.234375 -2.957031 4.453125 -2.71875 C 4.671875 -2.488281 4.929688 -2.3125 5.234375 -2.1875 C 5.546875 -2.0625 5.878906 -2 6.234375 -2 C 6.597656 -2 6.929688 -2.0625 7.234375 -2.1875 C 7.546875 -2.3125 7.8125 -2.488281 8.03125 -2.71875 C 8.25 -2.957031 8.414062 -3.234375 8.53125 -3.546875 C 8.65625 -3.867188 8.71875 -4.234375 8.71875 -4.640625 L 8.71875 -11.203125 L 11.125 -11.203125 L 11.125 -4.640625 C 11.125 -3.910156 11.003906 -3.25 10.765625 -2.65625 C 10.523438 -2.0625 10.191406 -1.550781 9.765625 -1.125 C 9.335938 -0.695312 8.820312 -0.363281 8.21875 -0.125 C 7.613281 0.113281 6.953125 0.234375 6.234375 0.234375 Z M 6.234375 0.234375 "/></g></g></g><g fill="#000000" fill-opacity="1"><g transform="translate(166.533709, 281.024982)"><g><path d="M 1.4375 -11.203125 L 3.59375 -11.203125 L 7.4375 -6.40625 L 11.28125 -11.203125 L 13.4375 -11.203125 L 13.4375 0 L 11.046875 0 L 11.046875 -7.359375 L 7.4375 -2.875 L 3.84375 -7.359375 L 3.84375 0 L 1.4375 0 Z M 1.4375 -11.203125 "/></g></g></g><g fill="#000000" fill-opacity="1"><g transform="translate(183.970133, 281.024982)"><g/></g></g><g fill="#000000" fill-opacity="1"><g transform="translate(189.889325, 281.024982)"><g><path d="M 6.796875 0.234375 C 5.929688 0.234375 5.128906 0.0820312 4.390625 -0.21875 C 3.648438 -0.53125 3.003906 -0.945312 2.453125 -1.46875 C 1.910156 -2 1.484375 -2.617188 1.171875 -3.328125 C 0.867188 -4.046875 0.71875 -4.800781 0.71875 -5.59375 C 0.71875 -6.394531 0.867188 -7.148438 1.171875 -7.859375 C 1.484375 -8.566406 1.910156 -9.1875 2.453125 -9.71875 C 3.003906 -10.25 3.648438 -10.664062 4.390625 -10.96875 C 5.128906 -11.28125 5.929688 -11.4375 6.796875 -11.4375 C 7.578125 -11.4375 8.265625 -11.316406 8.859375 -11.078125 C 9.453125 -10.847656 9.945312 -10.59375 10.34375 -10.3125 C 10.800781 -9.988281 11.191406 -9.617188 11.515625 -9.203125 L 9.921875 -7.59375 C 9.679688 -7.894531 9.410156 -8.164062 9.109375 -8.40625 C 8.835938 -8.601562 8.507812 -8.785156 8.125 -8.953125 C 7.738281 -9.117188 7.296875 -9.203125 6.796875 -9.203125 C 6.296875 -9.203125 5.828125 -9.109375 5.390625 -8.921875 C 4.953125 -8.734375 4.570312 -8.472656 4.25 -8.140625 C 3.925781 -7.816406 3.671875 -7.4375 3.484375 -7 C 3.296875 -6.570312 3.203125 -6.101562 3.203125 -5.59375 C 3.203125 -5.09375 3.296875 -4.625 3.484375 -4.1875 C 3.671875 -3.75 3.925781 -3.367188 4.25 -3.046875 C 4.570312 -2.722656 4.953125 -2.46875 5.390625 -2.28125 C 5.828125 -2.09375 6.296875 -2 6.796875 -2 C 7.316406 -2 7.773438 -2.082031 8.171875 -2.25 C 8.566406 -2.414062 8.90625 -2.597656 9.1875 -2.796875 C 9.5 -3.035156 9.769531 -3.300781 10 -3.59375 L 11.59375 -2 C 11.269531 -1.582031 10.875 -1.207031 10.40625 -0.875 C 10 -0.601562 9.492188 -0.347656 8.890625 -0.109375 C 8.296875 0.117188 7.597656 0.234375 6.796875 0.234375 Z M 6.796875 0.234375 "/></g></g></g><g fill="#000000" fill-opacity="1"><g transform="translate(204.366455, 281.024982)"><g><path d="M 6.796875 0.234375 C 5.929688 0.234375 5.128906 0.0820312 4.390625 -0.21875 C 3.648438 -0.53125 3.003906 -0.945312 2.453125 -1.46875 C 1.910156 -2 1.484375 -2.617188 1.171875 -3.328125 C 0.867188 -4.046875 0.71875 -4.800781 0.71875 -5.59375 C 0.71875 -6.394531 0.867188 -7.148438 1.171875 -7.859375 C 1.484375 -8.566406 1.910156 -9.1875 2.453125 -9.71875 C 3.003906 -10.25 3.648438 -10.664062 4.390625 -10.96875 C 5.128906 -11.28125 5.929688 -11.4375 6.796875 -11.4375 C 7.660156 -11.4375 8.460938 -11.28125 9.203125 -10.96875 C 9.941406 -10.664062 10.582031 -10.25 11.125 -9.71875 C 11.675781 -9.1875 12.101562 -8.566406 12.40625 -7.859375 C 12.71875 -7.148438 12.875 -6.394531 12.875 -5.59375 C 12.875 -4.800781 12.71875 -4.046875 12.40625 -3.328125 C 12.101562 -2.617188 11.675781 -2 11.125 -1.46875 C 10.582031 -0.945312 9.941406 -0.53125 9.203125 -0.21875 C 8.460938 0.0820312 7.660156 0.234375 6.796875 0.234375 Z M 6.796875 -2 C 7.296875 -2 7.765625 -2.09375 8.203125 -2.28125 C 8.640625 -2.46875 9.019531 -2.722656 9.34375 -3.046875 C 9.675781 -3.367188 9.9375 -3.75 10.125 -4.1875 C 10.3125 -4.625 10.40625 -5.09375 10.40625 -5.59375 C 10.40625 -6.101562 10.3125 -6.570312 10.125 -7 C 9.9375 -7.4375 9.675781 -7.816406 9.34375 -8.140625 C 9.019531 -8.472656 8.640625 -8.734375 8.203125 -8.921875 C 7.765625 -9.109375 7.296875 -9.203125 6.796875 -9.203125 C 6.296875 -9.203125 5.828125 -9.109375 5.390625 -8.921875 C 4.953125 -8.734375 4.570312 -8.472656 4.25 -8.140625 C 3.925781 -7.816406 3.671875 -7.4375 3.484375 -7 C 3.296875 -6.570312 3.203125 -6.101562 3.203125 -5.59375 C 3.203125 -5.09375 3.296875 -4.625 3.484375 -4.1875 C 3.671875 -3.75 3.925781 -3.367188 4.25 -3.046875 C 4.570312 -2.722656 4.953125 -2.46875 5.390625 -2.28125 C 5.828125 -2.09375 6.296875 -2 6.796875 -2 Z M 6.796875 -2 "/></g></g></g><g fill="#000000" fill-opacity="1"><g transform="translate(220.523183, 281.024982)"><g><path d="M 1.4375 -11.203125 L 6.40625 -11.203125 C 7 -11.203125 7.535156 -11.109375 8.015625 -10.921875 C 8.503906 -10.742188 8.921875 -10.488281 9.265625 -10.15625 C 9.609375 -9.820312 9.867188 -9.421875 10.046875 -8.953125 C 10.222656 -8.492188 10.3125 -7.988281 10.3125 -7.4375 C 10.3125 -6.800781 10.210938 -6.269531 10.015625 -5.84375 C 9.828125 -5.414062 9.609375 -5.078125 9.359375 -4.828125 C 9.078125 -4.546875 8.757812 -4.320312 8.40625 -4.15625 L 10.71875 0 L 8.078125 0 L 6.078125 -3.6875 L 3.84375 -3.6875 L 3.84375 0 L 1.4375 0 Z M 6.3125 -5.921875 C 6.757812 -5.921875 7.125 -6.0625 7.40625 -6.34375 C 7.695312 -6.625 7.84375 -6.988281 7.84375 -7.4375 C 7.84375 -7.882812 7.695312 -8.25 7.40625 -8.53125 C 7.125 -8.8125 6.757812 -8.953125 6.3125 -8.953125 L 3.84375 -8.953125 L 3.84375 -5.921875 Z M 6.3125 -5.921875 "/></g></g></g><g fill="#000000" fill-opacity="1"><g transform="translate(234.360474, 281.024982)"><g><path d="M 1.4375 -11.203125 L 6.15625 -11.203125 C 6.757812 -11.203125 7.304688 -11.109375 7.796875 -10.921875 C 8.285156 -10.734375 8.703125 -10.46875 9.046875 -10.125 C 9.398438 -9.789062 9.671875 -9.394531 9.859375 -8.9375 C 10.054688 -8.476562 10.15625 -7.976562 10.15625 -7.4375 C 10.15625 -6.894531 10.054688 -6.394531 9.859375 -5.9375 C 9.671875 -5.476562 9.398438 -5.078125 9.046875 -4.734375 C 8.703125 -4.398438 8.285156 -4.140625 7.796875 -3.953125 C 7.304688 -3.773438 6.757812 -3.6875 6.15625 -3.6875 L 3.84375 -3.6875 L 3.84375 0 L 1.4375 0 Z M 6.078125 -5.921875 C 6.554688 -5.921875 6.941406 -6.0625 7.234375 -6.34375 C 7.535156 -6.625 7.6875 -6.988281 7.6875 -7.4375 C 7.6875 -7.882812 7.535156 -8.25 7.234375 -8.53125 C 6.941406 -8.8125 6.554688 -8.953125 6.078125 -8.953125 L 3.84375 -8.953125 L 3.84375 -5.921875 Z M 6.078125 -5.921875 "/></g></g></g><g fill="#000000" fill-opacity="1"><g transform="translate(247.797862, 281.024982)"><g><path d="M 4.640625 0.234375 C 3.910156 0.234375 3.273438 0.144531 2.734375 -0.03125 C 2.203125 -0.207031 1.753906 -0.410156 1.390625 -0.640625 C 0.960938 -0.898438 0.601562 -1.191406 0.3125 -1.515625 L 1.921875 -3.125 C 2.109375 -2.894531 2.335938 -2.691406 2.609375 -2.515625 C 2.828125 -2.359375 3.097656 -2.21875 3.421875 -2.09375 C 3.753906 -1.976562 4.132812 -1.921875 4.5625 -1.921875 C 5.195312 -1.921875 5.660156 -2.039062 5.953125 -2.28125 C 6.253906 -2.53125 6.40625 -2.835938 6.40625 -3.203125 C 6.40625 -3.523438 6.265625 -3.773438 5.984375 -3.953125 C 5.703125 -4.140625 5.351562 -4.304688 4.9375 -4.453125 C 4.519531 -4.609375 4.070312 -4.765625 3.59375 -4.921875 C 3.113281 -5.085938 2.664062 -5.300781 2.25 -5.5625 C 1.832031 -5.820312 1.484375 -6.15625 1.203125 -6.5625 C 0.929688 -6.976562 0.796875 -7.507812 0.796875 -8.15625 C 0.796875 -8.59375 0.890625 -9.007812 1.078125 -9.40625 C 1.265625 -9.8125 1.53125 -10.160156 1.875 -10.453125 C 2.226562 -10.753906 2.65625 -10.992188 3.15625 -11.171875 C 3.664062 -11.347656 4.238281 -11.4375 4.875 -11.4375 C 5.5 -11.4375 6.046875 -11.351562 6.515625 -11.1875 C 6.992188 -11.03125 7.390625 -10.859375 7.703125 -10.671875 C 8.054688 -10.453125 8.367188 -10.203125 8.640625 -9.921875 L 7.046875 -8.3125 C 6.867188 -8.5 6.679688 -8.660156 6.484375 -8.796875 C 6.296875 -8.910156 6.070312 -9.019531 5.8125 -9.125 C 5.5625 -9.226562 5.273438 -9.28125 4.953125 -9.28125 C 4.347656 -9.28125 3.914062 -9.171875 3.65625 -8.953125 C 3.40625 -8.742188 3.28125 -8.476562 3.28125 -8.15625 C 3.28125 -7.84375 3.414062 -7.59375 3.6875 -7.40625 C 3.96875 -7.21875 4.316406 -7.046875 4.734375 -6.890625 C 5.148438 -6.742188 5.597656 -6.585938 6.078125 -6.421875 C 6.554688 -6.265625 7.003906 -6.054688 7.421875 -5.796875 C 7.835938 -5.535156 8.179688 -5.195312 8.453125 -4.78125 C 8.734375 -4.375 8.875 -3.847656 8.875 -3.203125 C 8.875 -2.742188 8.773438 -2.304688 8.578125 -1.890625 C 8.390625 -1.472656 8.113281 -1.101562 7.75 -0.78125 C 7.382812 -0.46875 6.9375 -0.21875 6.40625 -0.03125 C 5.882812 0.144531 5.296875 0.234375 4.640625 0.234375 Z M 4.640625 0.234375 "/></g></g></g></svg>